<?xml version="1.0" encoding="utf-8"?>
<svg viewBox="65 178.2459 420 113.5081" width="420" height="113.5081" xmlns="http://www.w3.org/2000/svg">
  <g fill="#000" fill-rule="nonzero" stroke="none" stroke-width="1" stroke-linecap="butt" stroke-linejoin="miter" stroke-miterlimit="10" stroke-dasharray="" stroke-dashoffset="0" font-family="none" font-weight="none" font-size="none" text-anchor="none" style="mix-blend-mode: normal" transform="matrix(1, 0, 0, 1, 0, 3.552713678800501e-15)">
    <g data-paper-data="{&quot;isGlobalGroup&quot;:true,&quot;bounds&quot;:{&quot;x&quot;:65,&quot;y&quot;:178.2459178565112,&quot;width&quot;:420,&quot;height&quot;:113.5081642869776}}">
      <g data-paper-data="{&quot;isPrimaryText&quot;:true}">
        <path d="M100.9318,276.23211c-1.87782,0.15981 -3.17631,0.2597 -3.89548,0.29965c0,-1.39838 0,-2.77677 0,-4.1352c0,-1.718 0,-3.39606 0,-5.03415c0,-4.27503 0,-8.17051 0,-11.68643c-0.03995,-9.74868 -0.11986,-16.22116 -0.23972,-19.41745c1.35842,-0.75912 2.67689,-1.6381 3.95541,-2.63694c1.15865,-0.99884 2.27735,-2.03763 3.3561,-3.11638c0.11986,7.71104 0.27968,16.04137 0.47944,24.99097c0.11986,6.91197 0.2597,13.72406 0.41951,20.43626c-1.47828,0.07991 -2.83671,0.17979 -4.07527,0.29965zM116.69349,180.40341c-6.87202,-0.91893 -11.44671,-1.19861 -13.72406,-0.83903c2.2374,20.53615 0.13984,34.08042 -6.29269,40.63281c-2.35726,2.43717 -4.97422,3.51592 -7.85088,3.23624c-2.63694,-0.19977 -4.63462,-1.31847 -5.99304,-3.3561c-2.91661,-4.27503 -4.95425,-10.52777 -6.1129,-18.75821c-0.39954,-2.91661 -0.75912,-6.45251 -1.07875,-10.60768l-0.17979,-2.63694l-0.17979,-2.51708c-0.11986,-2.2374 -0.21974,-3.8755 -0.29965,-4.91429c-0.99884,-0.31963 -2.65691,-0.61928 -4.97422,-0.89896c-1.95773,-0.19977 -3.55587,-0.29965 -4.79443,-0.29965c-0.43949,7.11174 -0.19977,14.7229 0.71916,22.83348c1.87782,16.26111 6.25274,26.98865 13.12476,32.18262c5.11406,3.8755 10.36796,4.75448 15.76169,2.63694c0.11986,3.19629 0.19977,9.08944 0.23972,17.67947c0,7.15169 0,14.7229 0,22.71362v0.95889h0.95889l0.65923,0.05993c0.83903,0 2.31731,-0.09988 4.43485,-0.29965c1.43833,-0.11986 2.7568,-0.21974 3.95541,-0.29965c0.07991,3.91545 0.15981,7.07179 0.23972,9.469l2.45715,0.05993l2.45715,0.11986c1.95773,0.03995 3.59582,-0.05993 4.91429,-0.29965c0.35958,-5.67341 0.73914,-23.79237 1.13868,-54.35687c0.35958,-28.88645 0.49942,-46.38612 0.41951,-52.49902z" data-paper-data="{&quot;glyphName&quot;:&quot;ч&quot;,&quot;glyphIndex&quot;:0,&quot;firstGlyphOfWord&quot;:true,&quot;word&quot;:1}"/>
        <path d="M149.65521,211.98673c-0.87898,0.95889 -1.67805,1.77793 -2.39722,2.45715l-1.31847,9.40907c0.75912,-0.71916 1.95773,-1.79791 3.59582,-3.23624c0.5993,-0.47944 1.43833,-1.23856 2.51708,-2.27735l0.7791,-0.71916c0.71916,-0.55935 1.15865,-0.99884 1.31847,-1.31847l0.05993,0.05993l-1.43833,-7.79095c-0.31963,0.31963 -0.67921,0.69919 -1.07875,1.13868l-0.83903,1.01882zM149.41548,209.34979l0.7791,-0.89896c0.79907,-0.95889 1.51824,-1.6381 2.15749,-2.03763l-1.55819,-8.45019h-1.25854l-1.85784,13.24462l0.53937,-0.53937zM153.43082,219.77768c-1.07875,1.03879 -1.93775,1.83787 -2.57701,2.39722c-0.27968,0.23972 -0.79907,0.69919 -1.55819,1.3784c-0.87898,0.75912 -1.59814,1.39838 -2.15749,1.91777h6.35262h2.39722l-1.25854,-6.77213l-0.53937,0.47944zM158.76463,277.61051c-0.07991,-0.31963 -0.13984,-0.67921 -0.17979,-1.07875c-0.07991,-0.43949 -0.15981,-0.91893 -0.23972,-1.43833c-0.19977,-1.23856 -0.39954,-2.47712 -0.5993,-3.71568c-0.55935,-3.43601 -1.05877,-6.6323 -1.49826,-9.58886c-1.27852,-8.70988 -1.93775,-14.36332 -1.9777,-16.9603v-0.83903l-0.83903,-0.11986c-6.15285,-0.75912 -10.5078,-1.1187 -13.06483,-1.07875c0.5993,-3.47596 0.93891,-5.75332 1.01882,-6.83206c2.43717,0.15981 7.89084,0.41951 16.361,0.7791l6.77213,40.75267c-0.87898,-0.03995 -1.91777,-0.03995 -3.11638,0c-0.47944,0.03995 -0.97886,0.05993 -1.49826,0.05993c-0.35958,0.03995 -0.73914,0.05993 -1.13868,0.05993zM145.34022,213.42506h0.05993l2.39722,-17.43974h4.67457l5.81325,31.40353l-1.19861,0.05993c-0.5194,0 -1.718,0 -3.59582,0h-10.06831l1.91777,-13.96378zM159.18414,184.29889c-8.94961,-1.43833 -14.42325,-2.29733 -16.42093,-2.57701c-1.87782,5.43369 -5.35378,24.35172 -10.42789,56.75408c-1.83787,11.86622 -3.55587,23.37285 -5.15401,34.51991c-1.47828,10.42789 -2.29733,16.68063 -2.45715,18.75821c0.87898,-0.19977 3.0964,-0.31963 6.65227,-0.35958c3.95541,-20.41629 6.85204,-35.97821 8.68991,-46.68578c1.23856,0.03995 3.19629,0.17979 5.87318,0.41951c2.39722,0.19977 4.53473,0.39954 6.41255,0.5993c0.15981,3.3561 0.93891,9.74868 2.33729,19.17773c0.47944,2.99652 0.97886,6.15285 1.49826,9.469c0.15981,1.03879 0.33961,2.05761 0.53937,3.05645c0.03995,0.31963 0.07991,0.63926 0.11986,0.95889l0.05993,0.29965v0.11986l0.17979,0.89896l0.89896,-0.05993h0.05993h0.11986h0.23972l0.29965,-0.05993c0.55935,0 1.13868,-0.01998 1.73798,-0.05993c1.79791,-0.07991 3.27619,-0.09988 4.43485,-0.05993l0.95889,5.75332c5.31383,-0.23972 8.72986,-0.35958 10.2481,-0.35958l0.35958,0.35958c-1.1187,-3.67573 -6.87202,-37.31666 -17.25995,-100.92278z" data-paper-data="{&quot;glyphName&quot;:&quot;а&quot;,&quot;glyphIndex&quot;:1,&quot;word&quot;:1}"/>
        <path d="M197.12008,204.97487c0.15981,4.59466 0.2597,8.72986 0.29965,12.40559c-2.11754,0.03995 -3.99536,0.07991 -5.63346,0.11986c-0.47944,-14.14357 -0.91893,-23.25299 -1.31847,-27.32826c0.91893,-0.07991 3.0165,-0.09988 6.29269,-0.05993c0,3.59582 0.11986,8.55007 0.35958,14.86274zM212.22254,225.71079c0.11986,-0.67921 0.17979,-1.718 0.17979,-3.11638h1.49826c0.55935,-0.03995 1.05877,-0.03995 1.49826,0c0.03995,0.87898 0.01998,2.2374 -0.05993,4.07527c-0.03995,1.31847 -0.09988,2.7568 -0.17979,4.31499c-0.5194,0 -1.03879,0 -1.55819,0c-0.67921,0 -1.35842,0 -2.03763,0c-1.75796,0.03995 -3.37608,0.07991 -4.85436,0.11986c-4.15517,0.07991 -6.75216,0.17979 -7.79095,0.29965l-0.7791,0.11986l-0.11986,0.7791c0,0.03995 0,0.57933 0,1.61812c0,1.1187 0,2.4971 0,4.1352c0.03995,4.31499 0.07991,8.62998 0.11986,12.94496c0.15981,13.02487 0.41951,21.4351 0.7791,25.2307c-1.1187,0 -2.31731,0.03995 -3.59582,0.11986l-0.71916,0.05993h-0.5993c-0.39954,0.03995 -0.67921,0.05993 -0.83903,0.05993c-1.23856,-31.04394 -1.79791,-47.66464 -1.67805,-49.86209c1.35842,-0.19977 4.83439,-0.35958 10.42789,-0.47944l3.11638,-0.05993c1.15865,-0.03995 2.13752,-0.05993 2.93659,-0.05993c1.99768,-0.07991 3.41603,-0.17979 4.25506,-0.29965zM218.15564,190.35186c0.07991,-0.5194 0.01998,-1.91777 -0.17979,-4.19513l-0.05993,-1.31847l-0.11986,-1.25854c-0.07991,-0.83903 -0.09988,-1.43833 -0.05993,-1.79791c-3.19629,-0.43949 -10.22812,-0.71916 -21.0955,-0.83903c-11.18701,-0.15981 -16.92035,0.01998 -17.20002,0.53937c2.07759,67.12204 3.0964,101.9416 3.05645,104.45867c2.35726,0.35958 8.29037,0.47944 17.79933,0.35958c3.19629,-0.03995 6.43253,-0.09988 9.70872,-0.17979c1.23856,-0.03995 2.29733,-0.07991 3.17631,-0.11986c0.79907,0 1.25854,-0.01998 1.3784,-0.05993c0.11986,-0.83903 0.09988,-2.37724 -0.05993,-4.61464c-0.11986,-1.83787 -0.2597,-3.41603 -0.41951,-4.7345c-3.63578,-0.39954 -8.0906,-0.53937 -13.36448,-0.41951c-0.15981,-2.99652 -0.33961,-10.2481 -0.53937,-21.75473c-0.15981,-10.94729 -0.21974,-17.97912 -0.17979,-21.0955c1.67805,-0.11986 4.83439,-0.21974 9.469,-0.29965c0.79907,0 1.6381,-0.01998 2.51708,-0.05993c0.67921,0 1.3784,0 2.09756,0h0.7791c0.23972,0 0.45947,-0.01998 0.65923,-0.05993h0.53937h0.95889l0.05993,-0.89896c0.03995,-0.55935 0.07991,-4.27503 0.11986,-11.14705c-2.31731,-0.19977 -3.93543,-0.27968 -4.85436,-0.23972c-0.03995,-1.1187 -0.07991,-2.11754 -0.11986,-2.99652c-0.75912,-0.15981 -2.45715,-0.2597 -5.09408,-0.29965c-2.07759,-0.03995 -4.65459,-0.03995 -7.73102,0c-0.03995,-3.47596 -0.13984,-7.61116 -0.29965,-12.40559c-0.23972,-6.19281 -0.35958,-11.12708 -0.35958,-14.80281c1.59814,0 3.63578,0.03995 6.1129,0.11986l3.05645,0.05993c1.31847,0 2.29733,0.01998 2.93659,0.05993c4.31499,0.07991 6.75216,0.07991 7.31151,0z" data-paper-data="{&quot;glyphName&quot;:&quot;е&quot;,&quot;glyphIndex&quot;:2,&quot;word&quot;:1}"/>
        <path d="M245.90342,280.66696c-0.79907,0.03995 -1.718,0.03995 -2.7568,0l-2.7568,-0.11986l-2.15749,-0.11986c0.39954,-13.66413 0.75912,-29.62559 1.07875,-47.88438c0.31963,-21.73476 0.35958,-36.91712 0.11986,-45.5471h8.68991c-0.07991,7.15169 -0.41951,23.35288 -1.01882,48.60355c-0.5993,25.41049 -0.99884,40.43304 -1.19861,45.06766zM274.67001,178.24592c-30.36473,0.47944 -46.80564,0.71916 -49.32271,0.71916c1.83787,67.68139 2.7568,104.65844 2.7568,110.93116c0.71916,0.07991 1.53821,0.13984 2.45715,0.17979l2.45715,0.11986c2.15749,0.07991 3.73566,0.19977 4.7345,0.35958c0.11986,-0.55935 0.2597,-3.27619 0.41951,-8.15053l2.09756,0.11986l2.03763,0.11986h2.09756c0.87898,0 1.718,-0.01998 2.51708,-0.05993l0.83903,-0.11986l0.05993,-0.83903c0.15981,-1.99768 0.55935,-16.42093 1.19861,-43.26974c0.63926,-26.52919 0.99884,-43.6493 1.07875,-51.36035h14.80281c-0.27968,15.26227 -1.17863,49.54246 -2.69687,102.84055c0.79907,0 1.87782,0.05993 3.23624,0.17979l1.79791,0.17979l1.85784,0.11986c3.11638,0.27968 5.41371,0.29965 6.892,0.05993c0.63926,-5.39374 0.65923,-25.19074 0.05993,-59.39102c-0.19977,-12.70524 -0.45947,-24.53151 -0.7791,-35.47879c-0.27968,-10.62766 -0.47944,-16.38097 -0.5993,-17.25995z" data-paper-data="{&quot;glyphName&quot;:&quot;п&quot;,&quot;glyphIndex&quot;:3,&quot;word&quot;:1}"/>
        <path d="M314.64358,277.07114c-0.07991,-1.79791 -0.01998,-6.43253 0.17979,-13.90385c0.07991,-2.83671 0.17979,-6.25274 0.29965,-10.2481l0.11986,-5.27387l0.11986,-2.51708l0.05993,-2.51708l0.11986,-3.53589c0.03995,-1.31847 0.05993,-2.43717 0.05993,-3.3561c0.07991,-2.43717 0.13984,-4.43485 0.17979,-5.99304c3.71568,-10.66761 5.83322,-16.74056 6.35262,-18.21884c-0.03995,1.1187 -0.07991,4.31499 -0.11986,9.58886c-0.07991,5.63346 -0.15981,11.74636 -0.23972,18.3387c-0.15981,17.41977 -0.19977,29.90527 -0.11986,37.4565c-0.83903,0.19977 -1.99768,0.29965 -3.47596,0.29965c-1.39838,0.03995 -2.57701,0 -3.53589,-0.11986zM297.1439,227.44877c0.75912,-2.11754 1.69803,-4.69455 2.81673,-7.73102c0.75912,-2.11754 1.75796,-4.83439 2.99652,-8.15053c4.03531,-10.98724 6.35262,-17.41977 6.95193,-19.29759c0.39954,0.11986 1.01882,0.33961 1.85784,0.65923l1.01882,0.35958l1.01882,0.41951c1.43833,0.5993 2.53705,1.01882 3.29617,1.25854c-1.07875,2.83671 -2.83671,7.47132 -5.27387,13.90385l-1.49826,3.95541l-1.49826,4.01534c-1.15865,3.03647 -2.15749,5.69339 -2.99652,7.97074c-4.83439,12.62534 -7.85088,20.11664 -9.04949,22.4739c-0.03995,-0.35958 0.07991,-6.9719 0.35958,-19.83696zM334.36068,187.53513c-8.07063,-1.75796 -12.62534,-2.21742 -13.66413,-1.3784c-0.19977,0.19977 -1.15865,2.51708 -2.87666,6.95193c-0.71916,-0.23972 -3.69571,-1.25854 -8.92963,-3.05645c-2.99652,7.91081 -5.5935,14.86274 -7.79095,20.85578c-1.35842,3.67573 -2.63694,7.15169 -3.83555,10.42789c0.15981,-9.94845 0.23972,-17.69944 0.23972,-23.25299c-0.03995,-7.43137 -0.2597,-11.30687 -0.65923,-11.6265c-4.15517,-0.67921 -6.9719,-0.93891 -8.45019,-0.7791c-0.35958,3.31615 -0.83903,20.29643 -1.43833,50.94083c-0.5993,31.24371 -0.69919,48.3039 -0.29965,51.18056c0.47944,0.19977 1.8978,0.31963 4.25506,0.35958c2.27735,0.03995 3.85552,0 4.7345,-0.11986c6.79211,-19.73708 12.78515,-37.09691 17.97912,-52.07951c-0.03995,1.43833 -0.09988,3.63578 -0.17979,6.59234c-0.67921,22.2142 -0.91893,34.06044 -0.71916,35.53872l0.11986,0.65923l0.65923,0.11986c0.27968,0.07991 0.79907,0.15981 1.55819,0.23972c0.91893,0.03995 1.83787,0.05993 2.7568,0.05993c1.51824,0 2.81673,-0.09988 3.89548,-0.29965c0.03995,2.31731 0.07991,3.77561 0.11986,4.37492c1.07875,0.15981 2.85668,0.2597 5.3338,0.29965c2.67689,0.03995 4.29501,-0.03995 4.85436,-0.23972c-0.03995,-0.71916 0.33961,-16.20118 1.13868,-46.44605c0.39954,-15.30223 0.67921,-26.02977 0.83903,-32.18262c0.23972,-10.10826 0.35958,-15.82162 0.35958,-17.14009z" data-paper-data="{&quot;glyphName&quot;:&quot;и&quot;,&quot;glyphIndex&quot;:4,&quot;word&quot;:1}"/>
        <path d="M377.75028,271.55754c-0.67921,0.03995 -1.6381,0.03995 -2.87666,0l-1.67805,-0.11986l-1.67805,-0.05993h-0.05993c0.03995,-9.86854 -0.17979,-25.29063 -0.65923,-46.26626c-0.07991,-3.55587 -0.15981,-7.29153 -0.23972,-11.20698c-0.03995,-2.79675 -0.09988,-5.87318 -0.17979,-9.22928c-0.15981,-5.95309 -0.23972,-9.02951 -0.23972,-9.22928c1.67805,-0.03995 3.81557,-0.15981 6.41255,-0.35958c0.23972,5.91313 0.5194,19.15775 0.83903,39.73385c0.31963,20.69596 0.43949,32.94174 0.35958,36.73733zM384.46249,185.55743c-0.99884,-0.35958 -7.87086,-0.37956 -20.61606,-0.05993c-4.35494,0.07991 -9.1294,0.19977 -14.32336,0.35958c-1.95773,0.07991 -3.83555,0.15981 -5.63346,0.23972c-1.47828,0.03995 -2.67689,0.07991 -3.59582,0.11986c0,0.43949 0,1.13868 0,2.09756l0.05993,1.31847v1.43833c0.03995,2.43717 0.05993,4.05529 0.05993,4.85436h0.23972l0.35958,0.05993c0.27968,0.03995 0.5993,0.07991 0.95889,0.11986c0.91893,0.07991 1.95773,0.13984 3.11638,0.17979c3.3561,0.03995 7.43137,-0.15981 12.2258,-0.5993c-0.5194,7.47132 -0.01998,36.45766 1.49826,86.959c0.55935,0 1.49826,0.01998 2.81673,0.05993h1.67805l1.73798,0.05993c2.83671,0.03995 4.89432,-0.03995 6.17283,-0.23972c0.15981,-1.59814 0.23972,-4.65459 0.23972,-9.16935l1.43833,0.05993l1.3784,0.05993c1.03879,0.03995 1.8978,0.05993 2.57701,0.05993c0.87898,0 1.53821,-0.01998 1.9777,-0.05993l0.7791,-0.11986l0.05993,-0.71916c0.15981,-1.1187 0.07991,-12.7452 -0.23972,-34.87949c-0.31963,-21.93452 -0.61928,-36.19796 -0.89896,-42.7903c2.15749,-0.19977 3.91545,-0.39954 5.27387,-0.5993l0.35958,-2.27735l0.35958,-2.21742c0.19977,-1.718 0.17979,-3.15633 -0.05993,-4.31499z" data-paper-data="{&quot;glyphName&quot;:&quot;т&quot;,&quot;glyphIndex&quot;:5,&quot;word&quot;:1}"/>
        <path d="M418.2033,277.07114c-0.07991,-1.79791 -0.01998,-6.43253 0.17979,-13.90385c0.07991,-2.83671 0.17979,-6.25274 0.29965,-10.2481l0.11986,-5.27387l0.11986,-2.51708l0.05993,-2.51708l0.11986,-3.53589c0.03995,-1.31847 0.05993,-2.43717 0.05993,-3.3561c0.07991,-2.43717 0.13984,-4.43485 0.17979,-5.99304c3.71568,-10.66761 5.83322,-16.74056 6.35262,-18.21884c-0.03995,1.1187 -0.07991,4.31499 -0.11986,9.58886c-0.07991,5.63346 -0.15981,11.74636 -0.23972,18.3387c-0.15981,17.41977 -0.19977,29.90527 -0.11986,37.4565c-0.83903,0.19977 -1.99768,0.29965 -3.47596,0.29965c-1.39838,0.03995 -2.57701,0 -3.53589,-0.11986zM400.70362,227.44877c0.75912,-2.11754 1.69803,-4.69455 2.81673,-7.73102c0.75912,-2.11754 1.75796,-4.83439 2.99652,-8.15053c4.03531,-10.98724 6.35262,-17.41977 6.95193,-19.29759c0.39954,0.11986 1.01882,0.33961 1.85784,0.65923l1.01882,0.35958l1.01882,0.41951c1.43833,0.5993 2.53705,1.01882 3.29617,1.25854c-1.07875,2.83671 -2.83671,7.47132 -5.27387,13.90385l-1.49826,3.95541l-1.49826,4.01534c-1.15865,3.03647 -2.15749,5.69339 -2.99652,7.97074c-4.83439,12.62534 -7.85088,20.11664 -9.04949,22.4739c-0.03995,-0.35958 0.07991,-6.9719 0.35958,-19.83696zM437.9204,187.53513c-8.07063,-1.75796 -12.62534,-2.21742 -13.66413,-1.3784c-0.19977,0.19977 -1.15865,2.51708 -2.87666,6.95193c-0.71916,-0.23972 -3.69571,-1.25854 -8.92963,-3.05645c-2.99652,7.91081 -5.5935,14.86274 -7.79095,20.85578c-1.35842,3.67573 -2.63694,7.15169 -3.83555,10.42789c0.15981,-9.94845 0.23972,-17.69944 0.23972,-23.25299c-0.03995,-7.43137 -0.2597,-11.30687 -0.65923,-11.6265c-4.15517,-0.67921 -6.9719,-0.93891 -8.45019,-0.7791c-0.35958,3.31615 -0.83903,20.29643 -1.43833,50.94083c-0.5993,31.24371 -0.69919,48.3039 -0.29965,51.18056c0.47944,0.19977 1.8978,0.31963 4.25506,0.35958c2.27735,0.03995 3.85552,0 4.7345,-0.11986c6.79211,-19.73708 12.78515,-37.09691 17.97912,-52.07951c-0.03995,1.43833 -0.09988,3.63578 -0.17979,6.59234c-0.67921,22.2142 -0.91893,34.06044 -0.71916,35.53872l0.11986,0.65923l0.65923,0.11986c0.27968,0.07991 0.79907,0.15981 1.55819,0.23972c0.91893,0.03995 1.83787,0.05993 2.7568,0.05993c1.51824,0 2.81673,-0.09988 3.89548,-0.29965c0.03995,2.31731 0.07991,3.77561 0.11986,4.37492c1.07875,0.15981 2.85668,0.2597 5.3338,0.29965c2.67689,0.03995 4.29501,-0.03995 4.85436,-0.23972c-0.03995,-0.71916 0.33961,-16.20118 1.13868,-46.44605c0.39954,-15.30223 0.67921,-26.02977 0.83903,-32.18262c0.23972,-10.10826 0.35958,-15.82162 0.35958,-17.14009z" data-paper-data="{&quot;glyphName&quot;:&quot;и&quot;,&quot;glyphIndex&quot;:6,&quot;word&quot;:1}"/>
        <path d="M463.93019,204.97487c0.15981,4.59466 0.2597,8.72986 0.29965,12.40559c-2.11754,0.03995 -3.99536,0.07991 -5.63346,0.11986c-0.47944,-14.14357 -0.91893,-23.25299 -1.31847,-27.32826c0.91893,-0.07991 3.0165,-0.09988 6.29269,-0.05993c0,3.59582 0.11986,8.55007 0.35958,14.86274zM479.03265,225.71079c0.11986,-0.67921 0.17979,-1.718 0.17979,-3.11638h1.49826c0.55935,-0.03995 1.05877,-0.03995 1.49826,0c0.03995,0.87898 0.01998,2.2374 -0.05993,4.07527c-0.03995,1.31847 -0.09988,2.7568 -0.17979,4.31499c-0.5194,0 -1.03879,0 -1.55819,0c-0.67921,0 -1.35842,0 -2.03763,0c-1.75796,0.03995 -3.37608,0.07991 -4.85436,0.11986c-4.15517,0.07991 -6.75216,0.17979 -7.79095,0.29965l-0.7791,0.11986l-0.11986,0.7791c0,0.03995 0,0.57933 0,1.61812c0,1.1187 0,2.4971 0,4.1352c0.03995,4.31499 0.07991,8.62998 0.11986,12.94496c0.15981,13.02487 0.41951,21.4351 0.7791,25.2307c-1.1187,0 -2.31731,0.03995 -3.59582,0.11986l-0.71916,0.05993h-0.5993c-0.39954,0.03995 -0.67921,0.05993 -0.83903,0.05993c-1.23856,-31.04394 -1.79791,-47.66464 -1.67805,-49.86209c1.35842,-0.19977 4.83439,-0.35958 10.42789,-0.47944l3.11638,-0.05993c1.15865,-0.03995 2.13752,-0.05993 2.93659,-0.05993c1.99768,-0.07991 3.41603,-0.17979 4.25506,-0.29965zM484.96575,190.35186c0.07991,-0.5194 0.01998,-1.91777 -0.17979,-4.19513l-0.05993,-1.31847l-0.11986,-1.25854c-0.07991,-0.83903 -0.09988,-1.43833 -0.05993,-1.79791c-3.19629,-0.43949 -10.22812,-0.71916 -21.0955,-0.83903c-11.18701,-0.15981 -16.92035,0.01998 -17.20002,0.53937c2.07759,67.12204 3.0964,101.9416 3.05645,104.45867c2.35726,0.35958 8.29037,0.47944 17.79933,0.35958c3.19629,-0.03995 6.43253,-0.09988 9.70872,-0.17979c1.23856,-0.03995 2.29733,-0.07991 3.17631,-0.11986c0.79907,0 1.25854,-0.01998 1.3784,-0.05993c0.11986,-0.83903 0.09988,-2.37724 -0.05993,-4.61464c-0.11986,-1.83787 -0.2597,-3.41603 -0.41951,-4.7345c-3.63578,-0.39954 -8.0906,-0.53937 -13.36448,-0.41951c-0.15981,-2.99652 -0.33961,-10.2481 -0.53937,-21.75473c-0.15981,-10.94729 -0.21974,-17.97912 -0.17979,-21.0955c1.67805,-0.11986 4.83439,-0.21974 9.469,-0.29965c0.79907,0 1.6381,-0.01998 2.51708,-0.05993c0.67921,0 1.3784,0 2.09756,0h0.7791c0.23972,0 0.45947,-0.01998 0.65923,-0.05993h0.53937h0.95889l0.05993,-0.89896c0.03995,-0.55935 0.07991,-4.27503 0.11986,-11.14705c-2.31731,-0.19977 -3.93543,-0.27968 -4.85436,-0.23972c-0.03995,-1.1187 -0.07991,-2.11754 -0.11986,-2.99652c-0.75912,-0.15981 -2.45715,-0.2597 -5.09408,-0.29965c-2.07759,-0.03995 -4.65459,-0.03995 -7.73102,0c-0.03995,-3.47596 -0.13984,-7.61116 -0.29965,-12.40559c-0.23972,-6.19281 -0.35958,-11.12708 -0.35958,-14.80281c1.59814,0 3.63578,0.03995 6.1129,0.11986l3.05645,0.05993c1.31847,0 2.29733,0.01998 2.93659,0.05993c4.31499,0.07991 6.75216,0.07991 7.31151,0z" data-paper-data="{&quot;glyphName&quot;:&quot;е&quot;,&quot;glyphIndex&quot;:7,&quot;lastGlyphOfWord&quot;:true,&quot;word&quot;:1}"/>
      </g>
    </g>
  </g>
</svg>